<svg data-v-1aa59410="" version="1.0" xmlns="http://www.w3.org/2000/svg" xmlns:xlink="http://www.w3.org/1999/xlink" width="100%" height="100%" viewBox="0 0 340.000000 250.000000" preserveAspectRatio="xMidYMid meet" color-interpolation-filters="sRGB" class="el-tooltip" style="margin: auto;"><rect data-v-1aa59410="" x="0" y="0" width="100%" height="100%" fill="#ffffff" fill-opacity="1" class="background"></rect> <rect data-v-1aa59410="" x="0" y="0" width="100%" height="100%" fill="url(#watermark)" fill-opacity="1" class="watermarklayer"></rect> <g data-v-1aa59410="" fill="#cf643d" class="newinitialsvg-g newinitialsvg" transform="translate(97.68000030517578,78.91991424560547)"><g class="tp-name" transform="translate(2.2168807983398438,0)"><g transform="translate(0, 0)" fill="#cf643d" mask="url(#d0bf0a81-e30d-403c-ad7d-ba1474997758)"><polyline fill="#c4bd97" points="0,0 50.5703125,12 50.5703125,64.207666397095 0,76.207666397095"></polyline><g transform="translate(3,15)"><path d="M23.24 4.49Q22.85 4.49 21.68 4.10L21.68 4.10Q21.09 3.52 21.09 3.32L21.09 3.32L20.90 2.93L20.90 2.93Q20.51 2.93 19.34 2.54L19.34 2.54Q18.75 1.95 18.75 1.76L18.75 1.76L18.55 1.56L18.36 0L18.75-1.56Q18.95-1.95 19.53-2.34L19.53-2.34Q19.73-2.54 20.51-2.54L20.51-2.54L25.39-2.93Q24.80-3.13 24.41-3.91L24.41-3.91Q24.02-5.66 24.22-6.05L24.22-6.05Q23.44-7.03 23.24-7.23L23.24-7.23Q22.46-7.23 22.27-7.42L22.27-7.42Q21.09-8.20 20.90-8.79L20.90-8.79L20.31-9.77L20.12-9.77Q18.75-9.77 18.36-9.96L18.36-9.96L18.16-9.96L16.99-0.59Q16.99 0.20 16.60 0.78L16.60 0.78Q15.82 1.56 13.87 1.56L13.87 1.56L12.30 1.37L11.52 0.98Q10.74 0.78 10.55-0.20L10.55-0.20L9.96-0.20L9.18-0.59Q8.20-0.78 8.20-2.54L8.20-2.54Q8.20-4.10 8.40-5.47L8.40-5.47L8.79-9.77L8.20-9.77L7.23-9.96L5.86-10.55L4.88-11.52L3.52-12.11Q3.13-12.50 2.73-13.28L2.73-13.28Q2.73-14.06 2.93-14.65L2.93-14.65L5.27-21.09Q5.66-22.07 6.45-22.07L6.45-22.07L8.01-21.88L8.59-21.68L9.57-21.29L9.96-21.09L10.74-30.47Q10.74-32.42 13.67-32.42L13.67-32.42Q15.04-32.42 16.21-32.03L16.21-32.03L16.41-31.64Q16.99-31.25 17.19-30.86L17.19-30.86L17.77-30.66Q17.38-31.84 17.38-32.42L17.38-32.42Q17.38-33.59 17.97-34.77L17.97-34.77Q18.55-35.55 19.34-35.55L19.34-35.55L21.09-35.55Q21.09-36.13 21.48-36.52L21.48-36.52Q22.46-37.50 24.41-37.50L24.41-37.50Q25.78-37.50 26.56-37.11L26.56-37.11Q27.34-36.72 27.34-35.94L27.34-35.94L28.91-35.55L29.10-35.35L33.98-35.35L34.57-36.52Q34.96-37.50 35.74-37.50L35.74-37.50L36.33-37.50Q38.87-37.50 40.23-35.74L40.23-35.74L41.60-35.16Q42.38-35.16 42.97-34.57L42.97-34.57L43.75-33.59L43.95-33.59Q44.73-33.59 45.31-33.01L45.31-33.01Q46.29-32.03 46.29-30.86L46.29-30.86Q46.29-29.88 45.70-28.71L45.70-28.71Q45.12-27.93 44.34-27.93L44.34-27.93L40.23-27.93L39.84-27.34L39.65-26.95Q40.23-25.78 40.23-24.80L40.23-24.80L41.41-24.80Q42.58-24.80 42.77-24.02L42.77-24.02L42.97-23.24L43.75-23.24Q44.92-23.24 45.12-22.46L45.12-22.46Q45.51-20.90 45.51-20.51L45.51-20.51Q45.51-19.14 44.73-18.36L44.73-18.36Q44.14-17.77 43.36-17.77L43.36-17.77Q43.95-17.19 43.95-16.02L43.95-16.02L44.14-12.30Q44.14-9.38 43.95-7.62L43.95-7.62Q43.95-6.45 42.97-6.25L42.97-6.25Q41.41-5.86 40.82-5.86L40.82-5.86L41.02-5.08L41.21-4.10L42.77-4.30Q43.75-4.30 44.34-3.52L44.34-3.52L44.53-2.73L45.12-2.73Q46.09-2.73 46.68-1.95L46.68-1.95Q47.46 0 47.27 1.95L47.27 1.95Q46.88 2.93 45.90 2.93L45.90 2.93L23.24 4.49ZM7.42-12.30L7.81-12.30L10.16-19.53L8.59-20.51L6.45-20.90L3.71-13.48Q4.10-13.09 5.27-12.70L5.27-12.70L7.42-12.30ZM11.52-1.17Q13.28-1.17 13.48-1.76L13.48-1.76L15.23-16.99L15.82-24.80L16.21-30.47L15.43-31.05Q15.04-31.25 13.67-31.25L13.67-31.25Q11.91-31.25 11.91-30.47L11.91-30.47L10.16-11.72L9.57-5.27Q9.18-1.95 9.38-1.56L9.38-1.56L11.52-1.17ZM17.77-12.50Q19.73-12.50 20.31-13.09L20.31-13.09L19.53-18.55Q17.77-18.95 17.58-18.75L17.58-18.75L15.63-18.16L16.21-12.70Q16.41-12.50 17.77-12.50L17.77-12.50ZM20.31-19.14Q20.31-19.53 20.51-19.73L20.51-19.73L19.92-19.73L19.34-19.73L19.73-19.73L20.31-19.14ZM19.92 1.76L43.75 0.20L43.75-0.59Q43.75-1.95 43.16-3.13L43.16-3.13L33.40-2.34L33.40-3.71L37.30-3.52Q37.89-4.69 37.50-6.64L37.50-6.64L33.20-6.84L33.20-8.59L35.16-8.59Q36.33-10.35 35.16-11.33L35.16-11.33L33.20-11.33L33.20-12.50L36.72-12.50L36.72-8.98Q37.89-8.59 38.48-8.59L38.48-8.59Q39.26-8.59 40.43-8.98L40.43-8.98Q40.63-10.94 40.63-13.87L40.63-13.87Q40.63-16.60 40.43-17.58L40.43-17.58Q40.43-19.14 38.87-19.53L38.87-19.53Q37.89-19.73 35.94-19.73L35.94-19.73L33.01-19.73L33.01-20.70L41.41-20.51Q41.99-21.09 41.99-22.07L41.99-22.07L41.60-23.63L32.81-23.83L32.81-25.20L36.13-25.39Q36.72-26.37 36.72-26.76L36.72-26.76Q36.72-27.93 35.35-28.52L35.35-28.52L24.61-27.73Q24.41-27.15 24.41-26.37L24.41-26.37Q24.41-25 25.39-24.61L25.39-24.61L29.30-24.80L29.30-23.83L20.12-24.02Q18.75-22.66 19.73-20.90L19.73-20.90L29.30-20.70L29.30-19.53L26.95-19.53Q26.37-17.58 26.76-17.19L26.76-17.19L27.54-16.80L29.49-16.80L29.49-15.43L26.17-15.43Q25.59-14.06 25.98-12.50L25.98-12.50L29.49-12.50L29.49-11.33L25.78-11.33Q25.59-11.33 25.20-14.06L25.20-14.06L25.39-19.14Q25.39-19.73 24.22-19.73L24.22-19.73L23.05-19.73Q21.88-19.73 21.48-19.14L21.48-19.14L21.48-18.36Q21.48-17.19 21.29-16.60L21.29-16.60Q21.09-15.43 21.29-14.06L21.29-14.06Q21.29-12.11 21.48-11.13L21.48-11.13Q21.29-9.96 21.88-9.38L21.88-9.38Q22.07-8.79 23.05-8.40L23.05-8.40L24.02-8.40Q25.98-8.40 26.95-8.59L26.95-8.59L29.49-8.59L29.69-7.03L25.98-7.23Q25.59-6.84 25.39-5.86L25.39-5.86Q25.20-5.47 25.59-4.10L25.59-4.10L29.69-3.91L29.69-2.15L19.92-1.37Q19.53-0.98 19.53 0L19.53 0L19.92 1.76ZM19.53-25Q19.73-25.20 20.51-25.20L20.51-25.20L23.44-25.20Q22.85-25.98 23.24-27.54L23.24-27.54L23.05-27.54Q22.27-27.93 22.07-28.32L22.07-28.32L21.68-28.32Q20.70-28.32 20.12-29.10L20.12-29.10L19.92-29.88L19.14-29.88Q19.53-29.49 19.53-29.30L19.53-29.30Q19.73-28.91 19.73-28.13L19.73-28.13L19.53-25ZM33.01-15.43L33.01-16.80L35.55-16.80Q36.91-16.60 36.91-15.43L36.91-15.43L33.01-15.43ZM23.24-28.71Q23.83-28.52 24.80-28.52L24.80-28.52Q26.37-28.52 27.15-29.10L27.15-29.10L26.95-30.86L33.20-30.86L32.81-30.08Q33.59-28.71 36.33-29.10L36.33-29.10L37.11-30.66L42.19-30.66Q42.77-31.64 42.77-32.42L42.77-32.42Q42.77-33.20 41.99-33.98L41.99-33.98L38.67-33.98L39.26-35.16Q37.89-36.72 35.74-36.33L35.74-36.33L34.77-34.18L26.37-34.18L26.17-35.94Q25.59-36.33 24.41-36.33L24.41-36.33Q23.05-36.33 22.27-35.55L22.27-35.55L22.46-34.38L19.14-34.38Q18.16-32.42 18.95-31.05L18.95-31.05L22.85-31.05L23.24-28.71Z" transform="translate(-2.734375, 40.250635147095)"></path></g></g><g transform="translate(54.5703125, 0)"><g transform="translate(0,15)"><path d="M16.60 4.69L15.82 4.69Q14.26 4.69 13.67 3.91L13.67 3.91Q13.28 3.52 13.28 3.13L13.28 3.13Q11.91 3.13 11.33 2.34L11.33 2.34L10.94 1.95Q9.38 1.95 8.59 2.15L8.59 2.15Q7.62 2.15 7.03 1.76L7.03 1.76Q6.64 1.37 6.25 0.59L6.25 0.59L6.25 0.59Q5.27 0.59 4.69 0.20L4.69 0.20Q3.71-0.78 3.71-2.34L3.71-2.34L3.71-3.13Q3.71-4.49 4.30-5.08L4.30-5.08Q4.69-5.47 5.66-5.47L5.66-5.47L7.42-5.66L7.03-6.05L7.03-6.05Q5.66-6.05 5.08-7.03L5.08-7.03Q4.30-8.20 4.10-8.79L4.10-8.79Q3.91-9.77 3.91-11.72L3.91-11.72Q3.71-12.70 3.71-14.06L3.71-14.06Q3.71-16.60 3.91-17.38L3.91-17.38L3.91-18.16Q3.91-19.14 4.30-19.53L4.30-19.53Q5.08-20.51 7.42-20.51L7.42-20.51Q8.40-20.51 9.57-20.12L9.57-20.12L9.77-20.12L9.38-20.31L8.79-21.29L8.40-21.48Q7.42-21.48 7.03-21.88L7.03-21.88Q6.05-23.05 6.05-26.76L6.05-26.76L5.47-27.34L5.27-28.13L4.49-28.13Q3.32-28.13 3.13-28.91L3.13-28.91Q2.73-30.47 2.73-31.25L2.73-31.25Q2.73-32.62 3.52-33.59L3.52-33.59Q3.91-34.18 4.88-34.18L4.88-34.18L6.25-34.18L6.45-34.77L6.45-35.55Q6.45-36.52 7.42-36.91L7.42-36.91L8.79-37.11Q9.18-37.30 9.77-37.30L9.77-37.30Q10.94-37.30 12.50-36.52L12.50-36.52Q13.09-36.33 13.09-35.74L13.09-35.74Q14.26-35.35 14.84-34.96L14.84-34.96Q15.43-34.77 15.43-33.98L15.43-33.98L16.21-33.98L16.21-35.16Q16.21-35.94 16.99-36.52L16.99-36.52Q18.55-36.91 19.34-36.91L19.34-36.91Q19.92-36.91 21.88-36.52L21.88-36.52Q22.85-36.13 22.85-35.35L22.85-35.35L24.22-34.96Q25.20-34.57 25.20-33.98L25.20-33.98Q25.78-33.79 25.98-33.20L25.98-33.20L26.17-32.42L26.95-32.42Q28.13-32.42 28.32-31.64L28.32-31.64L28.71-30.08L30.47-29.88Q30.66-30.27 30.66-30.86L30.66-30.86Q30.66-33.98 31.84-33.98L31.84-33.98Q33.40-34.38 34.38-34.38L34.38-34.38Q35.55-34.38 36.43-33.98Q37.30-33.59 37.30-32.81L37.30-32.81L37.30-32.81Q39.65-32.42 39.65-31.25L39.65-31.25L39.65-30.08L39.65-29.49L40.82-29.49Q41.41-29.49 42.19-29.10L42.19-29.10Q42.58-28.91 42.97-27.93L42.97-27.93L43.16-27.93Q43.75-27.93 44.53-27.54L44.53-27.54Q45.12-26.95 45.31-26.37L45.31-26.37L45.51-25.20Q45.51-24.02 45.12-22.46L45.12-22.46Q44.73-21.48 43.75-21.48L43.75-21.48L43.55-21.48Q43.55-21.09 43.75-20.90L43.75-20.90L43.75-20.90L43.75-20.90Q44.53-20.90 45.31-20.51L45.31-20.51Q45.90-19.92 46.09-19.34L46.09-19.34L46.29-18.16Q46.68-16.41 46.29-15.23L46.29-15.23Q46.09-14.45 44.92-14.45L44.92-14.45L39.26-14.06L39.45-13.67L40.82-13.67Q41.41-13.67 42.19-13.28L42.19-13.28Q42.58-13.09 42.97-12.11L42.97-12.11L43.16-12.11Q43.75-12.11 44.53-11.72L44.53-11.72Q45.12-11.13 45.31-10.55L45.31-10.55L45.51-9.38Q45.51-8.20 45.12-6.64L45.12-6.64Q44.73-5.66 43.75-5.66L43.75-5.66L43.16-5.66L43.75-5.47L44.34-4.88Q44.34-4.49 44.53-4.30L44.53-4.30L44.73-4.30Q45.31-4.30 46.09-3.91L46.09-3.91L46.68-3.32L47.07-1.56Q47.46 0.20 47.07 1.37L47.07 1.37Q46.88 2.15 45.70 2.15L45.70 2.15L27.93 3.13Q26.95 3.13 26.56 2.15L26.56 2.15Q26.56 1.76 26.37 1.56L26.37 1.56L25.59 1.56Q24.41 1.56 24.22 0.59L24.22 0.59Q22.27 0.98 19.92 0.98L19.92 0.98L19.92 2.15Q19.92 3.13 19.73 3.52L19.73 3.52Q18.95 4.69 16.60 4.69L16.60 4.69ZM14.26 1.95Q16.21 1.95 16.41 1.17L16.41 1.17L16.41-1.56Q22.66-2.15 22.85-2.34L22.85-2.34Q23.05-2.73 23.05-4.49L23.05-4.49Q22.85-5.66 22.27-5.86L22.27-5.86L16.41-5.27L16.41-8.01L18.75-8.40Q19.14-8.98 18.75-10.55L18.75-10.55Q18.55-11.91 17.97-11.91L17.97-11.91L16.41-11.52L16.41-16.21L18.55-16.21Q19.73-16.21 19.73-15.43L19.73-15.43L19.73-11.33Q19.73-9.38 19.53-8.79L19.53-8.79Q19.73-8.59 21.09-8.59L21.09-8.59Q22.27-8.59 23.44-8.98L23.44-8.98L23.44-16.21Q23.44-17.97 23.24-18.75L23.24-18.75Q23.24-19.92 21.68-19.92L21.68-19.92L19.34-19.92Q18.36-19.73 16.41-19.73L16.41-19.73Q16.60-20.31 16.60-22.07L16.60-22.07Q19.73-22.07 20.51-22.85L20.51-22.85Q21.09-23.44 21.48-28.32L21.48-28.32L21.48-28.91L24.80-28.91Q25.20-29.69 25.20-30.86L25.20-30.86Q25.20-32.23 24.80-32.81L24.80-32.81L21.68-32.81L21.68-35.35Q20.90-35.74 19.34-35.74L19.34-35.74Q17.97-35.74 17.38-35.35L17.38-35.35L17.38-32.81L11.52-33.01L11.91-35.55Q10.94-36.13 9.57-36.13L9.57-36.13L7.62-35.74L7.62-34.57Q7.42-33.98 7.42-33.01L7.42-33.01L4.49-33.01Q3.91-32.23 3.91-31.25L3.91-31.25Q3.91-30.47 4.30-29.30L4.30-29.30L7.23-29.30L7.23-26.95Q7.23-23.24 8.01-22.66L8.01-22.66L12.50-22.07L12.50-20.90Q12.30-20.31 12.30-19.34L12.30-19.34Q11.72-19.14 10.94-19.14L10.94-19.14Q10.16-19.14 9.96-18.95L9.96-18.95Q9.77-18.16 9.96-17.19L9.96-17.19L10.55-15.43Q10.94-15.63 12.11-15.63L12.11-15.63L12.11-11.13L10.16-11.13Q9.18-11.13 8.98-11.91L8.98-11.91Q8.79-12.30 8.79-15.04L8.79-15.04Q8.79-18.36 8.98-18.75L8.98-18.75Q8.98-19.34 7.42-19.34L7.42-19.34Q5.47-19.34 5.08-18.75L5.08-18.75L5.08-17.19Q4.88-16.60 4.88-14.06L4.88-14.06Q4.88-12.70 5.08-11.91L5.08-11.91Q5.08-9.96 5.27-8.98L5.27-8.98Q5.47-8.40 6.05-7.81L6.05-7.81Q6.45-7.23 7.03-7.23L7.03-7.23L7.42-7.23Q8.01-7.42 9.57-7.42L9.57-7.42Q11.13-7.42 12.11-7.62L12.11-7.62L12.11-4.88L5.27-4.30Q4.69-3.91 4.88-2.54L4.88-2.54Q4.88-1.17 5.66-0.59L5.66-0.59L12.11-1.17L12.11 1.56Q12.50 2.34 14.26 1.95L14.26 1.95ZM25.59-4.88L30.27-5.27L30.27-6.25L28.71-6.25Q27.93-6.25 27.54-7.23L27.54-7.23Q27.54-7.62 27.34-7.81L27.34-7.81L26.95-7.81L26.95-7.62Q26.95-6.45 25.98-6.25L25.98-6.25Q24.41-5.86 23.83-5.86L23.83-5.86L24.02-5.47L24.22-5.47Q24.80-5.66 25.59-4.88L25.59-4.88ZM11.13-25.78L11.13-29.10L17.19-29.10L17.19-25.98Q16.99-25.78 15.04-25.78L15.04-25.78L11.13-25.78ZM27.15-14.26L27.15-14.45Q27.15-14.84 26.95-15.04L26.95-15.04L26.95-15.04L26.95-14.65L26.95-14.26L27.15-14.26ZM25.39 0.39L43.55-0.59Q43.95-1.37 43.55-2.93L43.55-2.93L43.16-4.69L35.74-4.30L35.74-6.25Q35.74-7.62 35.94-8.59L35.94-8.59L41.60-8.40Q41.99-9.96 41.99-10.74L41.99-10.74L41.60-12.50L36.13-12.70Q36.13-14.84 35.94-15.04L35.94-15.04Q35.55-15.43 34.18-15.43L34.18-15.43Q32.23-15.43 32.03-15.23L32.03-15.23Q31.84-15.04 31.84-14.65L31.84-14.65L31.84-12.89L26.56-13.09L26.17-11.52L26.17-10.74Q26.17-9.57 26.37-8.98L26.37-8.98L31.64-8.79L31.64-6.64Q31.45-5.86 31.45-4.10L31.45-4.10L25.20-3.71L25-2.15Q25-1.17 25.39 0.39L25.39 0.39ZM39.26-5.66L41.21-5.66L39.26-5.86L39.26-5.66ZM24.41-19.53L24.61-20.31Q24.61-21.48 25.78-21.48L25.78-21.48L30.27-21.88L30.27-22.07L28.71-22.07Q27.93-22.07 27.54-23.05L27.54-23.05Q27.54-23.44 27.34-23.63L27.34-23.63L26.37-23.63Q25.59-23.63 25.20-24.61L25.20-24.61Q25-25 25-25.98L25-25.98Q24.61-21.29 23.63-20.51L23.63-20.51L23.63-20.51Q24.22-19.92 24.22-19.53L24.22-19.53L24.41-19.53ZM25.98-16.21L42.77-17.19Q43.16-18.16 42.77-19.53L42.77-19.53L42.38-21.29L35.74-20.90L35.74-24.41L41.60-24.22Q41.99-25.78 41.99-26.56L41.99-26.56L41.60-28.32L35.94-28.52Q36.13-29.88 36.13-31.64L36.13-31.64L36.13-32.81Q35.74-33.20 34.38-33.20L34.38-33.20Q33.59-33.20 32.03-32.81L32.03-32.81Q32.03-32.81 31.64-28.71L31.64-28.71L26.56-28.91L26.17-27.34L26.17-26.56Q26.17-25.39 26.37-24.80L26.37-24.80L31.64-24.61L31.64-22.66Q31.45-22.07 31.45-20.70L31.45-20.70L25.78-20.31L25.59-18.75Q25.59-17.77 25.98-16.21L25.98-16.21Z" transform="translate(-2.734375, 40.250635147095)"></path></g></g><g transform="translate(103.1015625, 0)"><g transform="translate(0,15)"><path d="M26.17 5.86Q25 5.86 25 4.69L25 4.69L25 4.30L23.83 4.30Q22.66 4.30 22.66 3.13L22.66 3.13L22.27-6.64L21.48-6.64Q20.90-6.64 20.70-6.84L20.70-6.84L21.09-2.73Q21.09-1.56 20.51-1.37L20.51-1.37Q18.36-0.59 17.97-0.59L17.97-0.59Q16.02-0.39 14.84-0.59L14.84-0.59Q14.06-0.78 14.06-1.95L14.06-1.95L12.50-2.15Q11.72-2.34 11.72-3.52L11.72-3.52L11.33-10.74Q10.35-10.94 9.38-11.91L9.38-11.91L8.98-12.30Q8.01-12.50 7.03-13.48L7.03-13.48Q6.45-13.87 6.45-14.84L6.45-14.84L7.03-19.92Q7.03-20.70 7.23-20.90L7.23-20.90Q7.62-21.48 8.01-21.68L8.01-21.68L9.57-22.07Q11.13-22.07 11.52-21.88L11.52-21.88L12.11-21.48Q12.30-21.88 15.04-22.27L15.04-22.27L15.04-22.46L14.84-22.85L14.26-24.41L13.87-25.39L13.67-25.78L13.28-25.78Q12.11-25.78 11.91-26.56L11.91-26.56L11.72-27.34L10.94-27.34Q9.77-27.34 9.57-28.13L9.57-28.13Q8.98-30.66 9.18-32.23L9.18-32.23Q9.57-33.20 10.55-33.20L10.55-33.20L20.90-34.18L19.73-35.55Q19.14-36.13 19.14-36.91L19.14-36.91Q18.75-38.48 21.29-39.45L21.29-39.45Q23.44-40.82 24.80-39.84L24.80-39.84L25.59-38.67Q26.17-38.87 27.15-38.28L27.15-38.28L29.69-34.96L33.79-35.35L37.11-35.55Q38.28-35.55 38.48-34.57L38.48-34.57L38.67-33.98L39.45-33.98Q40.63-33.98 40.82-33.01L40.82-33.01L41.21-32.23L41.41-31.05Q41.41-29.88 40.43-28.52L40.43-28.52Q40.23-27.93 39.06-27.93L39.06-27.93L37.89-27.73L38.48-27.15Q38.48-26.17 38.28-25.78L38.28-25.78L37.70-24.02L38.28-24.02Q39.84-23.83 40.82-22.46L40.82-22.46Q43.55-21.88 43.55-18.75L43.55-18.75L43.55-13.28Q43.55-12.30 43.16-11.91L43.16-11.91L42.38-11.72L41.99-11.52L41.60-11.33L40.04-11.13L39.45-11.13Q40.43-9.57 40.63-6.84L40.63-6.84Q40.63-4.69 40.23-2.34L40.23-2.34Q40.23-1.37 39.26-0.98L39.26-0.98Q38.09-0.39 37.11-0.39L37.11-0.39Q36.33-0.39 34.57-0.98L34.57-0.98Q33.79-1.17 33.79-2.15L33.79-2.15L32.23-2.54Q31.84-2.73 31.45-3.52L31.45-3.52L31.84 3.52Q31.84 4.49 31.05 5.08L31.05 5.08Q29.10 6.25 26.17 5.86L26.17 5.86ZM12.89-3.32Q13.67-3.13 15.43-3.32L15.43-3.32L17.58-3.91L16.80-12.30Q15.63-12.89 14.65-12.89L14.65-12.89Q13.67-12.89 12.50-12.30L12.50-12.30L12.89-3.32ZM9.77-13.48Q10.74-13.48 11.72-14.06L11.72-14.06L11.91-20.12Q11.91-20.51 11.13-20.70L11.13-20.70Q10.74-20.90 9.57-20.90L9.57-20.90Q8.59-20.90 8.20-20.51L8.20-20.51L7.62-14.45Q8.59-13.48 9.77-13.48L9.77-13.48ZM17.58-13.28Q17.97-13.87 18.75-13.87L18.75-13.87Q19.34-14.06 20.41-14.26Q21.48-14.45 22.07-14.45L22.07-14.45L21.88-15.04L16.80-14.65Q15.63-14.65 15.23-15.04L15.23-15.04L15.23-14.06L17.19-13.48L17.58-13.28ZM23.83 3.13L25 3.13Q26.95 3.13 28.32 2.34L28.32 2.34L27.73-9.77L32.23-10.16Q32.81-9.38 32.81-8.01L32.81-8.01L32.81-6.25Q32.81-4.69 32.62-3.71L32.62-3.71Q33.98-3.13 34.77-3.13L34.77-3.13Q35.55-3.13 36.72-3.71L36.72-3.71Q37.11-6.45 37.11-8.40L37.11-8.40Q36.91-11.33 35.94-12.50L35.94-12.50Q34.38-13.48 27.54-13.48L27.54-13.48L27.34-16.80Q25.98-17.38 25.20-17.38L25.20-17.38Q23.24-16.99 23.05-15.82L23.05-15.82L23.24-13.28Q20.90-13.28 18.55-12.70L18.55-12.70Q18.36-12.50 18.36-11.91L18.36-11.91Q18.36-11.13 18.95-9.38L18.95-9.38L23.24-9.57L23.83 3.13ZM31.45-3.91L31.45-4.10Q31.64-4.88 31.64-6.25L31.64-6.25L31.64-7.23L31.25-7.23L31.45-3.91ZM17.19-22.27Q19.92-22.27 20.31-23.44L20.31-23.44Q19.92-26.17 18.75-27.73L18.75-27.73Q18.55-27.93 17.58-27.93L17.58-27.93Q14.65-27.93 14.65-26.76L14.65-26.76L15.43-24.80L16.21-22.66Q16.60-22.27 17.19-22.27L17.19-22.27ZM37.70-13.87L39.45-14.26Q40.23-14.45 40.04-14.65L40.04-14.65L40.04-20.31Q40.04-22.66 38.09-22.85L38.09-22.85Q37.70-23.05 36.33-23.05L36.33-23.05Q34.77-23.05 33.59-22.85L33.59-22.85Q25.20-22.07 24.80-22.07L24.80-22.07Q13.87-21.09 13.09-20.70L13.09-20.70L13.09-19.53Q13.09-17.97 13.87-17.38L13.87-17.38L19.92-17.77Q34.38-19.14 35.16-18.95L35.16-18.95Q36.13-18.55 36.13-17.19L36.13-17.19L35.94-14.45Q35.94-13.87 37.70-13.87L37.70-13.87ZM34.77-14.06L34.77-14.45L34.96-16.21L30.66-15.82Q30.86-15.63 30.86-15.04L30.86-15.04L30.86-14.65L34.77-14.06ZM23.63-23.24L24.80-23.24L28.13-23.44Q27.54-24.02 27.93-25L27.93-25L28.52-26.95L22.27-26.56Q23.44-24.61 23.63-23.24L23.63-23.24ZM10.74-28.52L37.11-30.66Q37.89-31.45 37.89-32.81L37.89-32.81L37.30-34.38L33.79-34.18L25.98-33.40Q26.76-33.98 27.15-34.96L27.15-34.96L23.83-39.06L23.63-39.06Q23.05-39.06 21.88-38.48L21.88-38.48Q20.12-37.50 20.31-36.72L20.31-36.72L23.05-33.20L10.35-32.03L10.16-31.05Q10.16-30.08 10.74-28.52L10.74-28.52ZM31.64-23.24Q32.62-23.24 33.01-23.63L33.01-23.63Q34.38-26.17 34.96-28.13L34.96-28.13Q34.96-28.71 33.98-29.10L33.98-29.10Q33.59-29.30 31.84-29.30L31.84-29.30Q31.05-29.30 30.86-29.10L30.86-29.10Q29.69-26.95 28.91-24.41L28.91-24.41Q29.30-24.02 30.08-23.63L30.08-23.63L31.64-23.24Z" transform="translate(-6.4453125, 40.250635147095)"></path></g></g></g> <g fill-rule="" hollow-target="custom" class="tp-slogan" fill="#cf643d" transform="translate(0,83.2076644897461)"><!----> <!----> <g><path d="M6.56-3.19L6.56-8.58L7.73-8.58L7.73-3.05Q7.59 0.05 4.22 0.14L4.22 0.14Q1.08 0.05 0.94-2.86L0.94-2.86L0.94-8.58L2.11-8.58L2.11-3.19Q2.16-0.84 4.27-0.80L4.27-0.80Q6.56-0.84 6.56-3.19L6.56-3.19ZM9.20-8.58L13.51-1.64L13.51-8.58L14.64-8.58L14.64 0L13.32 0L8.97-6.94L8.92-6.94L8.92 0L7.79 0L7.79-8.58L9.20-8.58ZM18.21 0L14.74 0L14.74-8.58L18.26-8.58Q21.73-8.39 21.87-4.41L21.87-4.41Q21.68-0.09 18.21 0L18.21 0ZM18.07-7.64L15.91-7.64L15.91-0.98L18.16-0.98Q20.60-1.13 20.70-4.31L20.70-4.31Q20.65-7.55 18.07-7.64L18.07-7.64ZM22.91-1.03L28.07-1.03L28.07 0L21.74 0L21.74-8.58L27.97-8.58L27.97-7.59L22.91-7.59L22.91-4.92L27.60-4.92L27.60-3.89L22.91-3.89L22.91-1.03ZM31.97-3.70L29.16-3.70L29.16 0L27.99 0L27.99-8.58L31.97-8.58Q34.83-8.58 34.83-6.28L34.83-6.28Q34.83-4.88 33.61-4.22L33.61-4.22Q34.64-3.94 34.64-2.58L34.64-2.58L34.74-1.03Q34.69-0.38 35.16-0.19L35.16-0.19L35.16 0L33.70 0Q33.56-0.61 33.52-2.16L33.52-2.16Q33.56-3.70 31.97-3.70L31.97-3.70ZM32.06-7.64L29.16-7.64L29.16-4.69L31.88-4.69Q33.61-4.69 33.61-6.19L33.61-6.19Q33.61-7.64 32.06-7.64L32.06-7.64ZM41.03-6.09L41.03-6.09L39.95-6.09Q39.86-7.73 37.79-7.83L37.79-7.83Q35.87-7.78 35.87-6.33L35.87-6.33Q35.87-5.39 36.90-5.25L36.90-5.25L39.34-4.69Q41.26-4.22 41.26-2.34L41.26-2.34Q41.22 0.05 37.89 0.14L37.89 0.14Q36.06 0.14 35.31-0.61L35.31-0.61Q34.37-1.31 34.42-2.77L34.42-2.77L35.54-2.77Q35.59-0.80 37.89-0.75L37.89-0.75Q40.14-0.80 40.19-2.20L40.19-2.20Q40.37-3.38 38.31-3.75L38.31-3.75L36.53-4.13Q34.70-4.64 34.70-6.19L34.70-6.19Q34.84-8.72 37.70-8.81L37.70-8.81Q40.94-8.81 41.03-6.09ZM43.20-7.59L40.29-7.59L40.29-8.58L47.23-8.58L47.23-7.59L44.32-7.59L44.32 0L43.20 0L43.20-7.59ZM52.21 0L51.37-2.48L47.90-2.48L47.01 0L45.83 0L49.07-8.58L50.38-8.58L53.48 0L52.21 0ZM49.63-7.31L48.27-3.52L50.94-3.52L49.68-7.31L49.63-7.31ZM54.19-8.58L58.50-1.64L58.50-8.58L59.63-8.58L59.63 0L58.32 0L53.96-6.94L53.91-6.94L53.91 0L52.78 0L52.78-8.58L54.19-8.58ZM63.20 0L59.73 0L59.73-8.58L63.25-8.58Q66.72-8.39 66.86-4.41L66.86-4.41Q66.67-0.09 63.20 0L63.20 0ZM63.06-7.64L60.91-7.64L60.91-0.98L63.16-0.98Q65.59-1.13 65.69-4.31L65.69-4.31Q65.64-7.55 63.06-7.64L63.06-7.64ZM74.48-6.09L74.48-6.09L73.40-6.09Q73.30-7.73 71.24-7.83L71.24-7.83Q69.32-7.78 69.32-6.33L69.32-6.33Q69.32-5.39 70.35-5.25L70.35-5.25L72.79-4.69Q74.71-4.22 74.71-2.34L74.71-2.34Q74.66 0.05 71.34 0.14L71.34 0.14Q69.51 0.14 68.76-0.61L68.76-0.61Q67.82-1.31 67.87-2.77L67.87-2.77L68.99-2.77Q69.04-0.80 71.34-0.75L71.34-0.75Q73.59-0.80 73.63-2.20L73.63-2.20Q73.82-3.38 71.76-3.75L71.76-3.75L69.98-4.13Q68.15-4.64 68.15-6.19L68.15-6.19Q68.29-8.72 71.15-8.81L71.15-8.81Q74.38-8.81 74.48-6.09ZM75.61-5.06L80.11-5.06L80.11-8.58L81.29-8.58L81.29 0L80.11 0L80.11-3.98L75.61-3.98L75.61 0L74.44 0L74.44-8.58L75.61-8.58L75.61-5.06ZM88.14-4.27L88.14-4.27Q87.95-7.64 85.14-7.83L85.14-7.83Q82.28-7.69 82.14-4.27L82.14-4.27Q82.28-0.94 85.14-0.80L85.14-0.80Q87.95-0.98 88.14-4.27ZM89.31-4.27L89.31-4.27Q89.03 0 85.14 0.14L85.14 0.14Q81.20 0 80.92-4.27L80.92-4.27Q81.16-8.72 85.14-8.81L85.14-8.81Q89.03-8.67 89.31-4.27ZM90.26-1.03L95.42-1.03L95.42 0L89.09 0L89.09-8.58L95.33-8.58L95.33-7.59L90.26-7.59L90.26-4.92L94.95-4.92L94.95-3.89L90.26-3.89L90.26-1.03ZM98.12-1.03L103.27-1.03L103.27 0L96.94 0L96.94-8.58L103.18-8.58L103.18-7.59L98.12-7.59L98.12-4.92L102.80-4.92L102.80-3.89L98.12-3.89L98.12-1.03ZM111.30-8.58L111.30 0L110.17 0L110.17-5.06Q110.17-5.77 110.17-7.22L110.17-7.22L107.74 0L106.56 0L104.17-7.22L104.13-7.22Q104.13-6.70 104.17-5.67L104.17-5.67Q104.17-5.16 104.17-5.06L104.17-5.06L104.17 0L103.00 0L103.00-8.58L104.69-8.58L107.17-1.31L109.61-8.58L111.30-8.58ZM114.92-7.64L112.58-7.64L112.58-4.64L114.87-4.64Q116.65-4.64 116.65-6.19L116.65-6.19Q116.65-7.59 114.92-7.64L114.92-7.64ZM115.30-3.61L112.58-3.61L112.58 0L111.40 0L111.40-8.58L115.30-8.58Q117.73-8.48 117.83-6.19L117.83-6.19Q117.69-3.70 115.30-3.61L115.30-3.61ZM118.82-1.03L123.98-1.03L123.98 0L117.65 0L117.65-8.58L123.89-8.58L123.89-7.59L118.82-7.59L118.82-4.92L123.51-4.92L123.51-3.89L118.82-3.89L118.82-1.03ZM127.88-3.70L125.07-3.70L125.07 0L123.90 0L123.90-8.58L127.88-8.58Q130.74-8.58 130.74-6.28L130.74-6.28Q130.74-4.88 129.52-4.22L129.52-4.22Q130.55-3.94 130.55-2.58L130.55-2.58L130.65-1.03Q130.60-0.38 131.07-0.19L131.07-0.19L131.07 0L129.62 0Q129.48-0.61 129.43-2.16L129.43-2.16Q129.48-3.70 127.88-3.70L127.88-3.70ZM127.98-7.64L125.07-7.64L125.07-4.69L127.79-4.69Q129.52-4.69 129.52-6.19L129.52-6.19Q129.52-7.64 127.98-7.64L127.98-7.64ZM137.46-4.27L137.46-4.27Q137.27-7.64 134.46-7.83L134.46-7.83Q131.60-7.69 131.46-4.27L131.46-4.27Q131.60-0.94 134.46-0.80L134.46-0.80Q137.27-0.98 137.46-4.27ZM138.63-4.27L138.63-4.27Q138.35 0 134.46 0.14L134.46 0.14Q130.52 0 130.24-4.27L130.24-4.27Q130.47-8.72 134.46-8.81L134.46-8.81Q138.35-8.67 138.63-4.27ZM142.39-3.70L139.58-3.70L139.58 0L138.41 0L138.41-8.58L142.39-8.58Q145.25-8.58 145.25-6.28L145.25-6.28Q145.25-4.88 144.03-4.22L144.03-4.22Q145.06-3.94 145.06-2.58L145.06-2.58L145.16-1.03Q145.11-0.38 145.58-0.19L145.58-0.19L145.58 0L144.13 0Q143.98-0.61 143.94-2.16L143.94-2.16Q143.98-3.70 142.39-3.70L142.39-3.70ZM142.48-7.64L139.58-7.64L139.58-4.69L142.30-4.69Q144.03-4.69 144.03-6.19L144.03-6.19Q144.03-7.64 142.48-7.64L142.48-7.64Z" transform="translate(-0.9375, 8.8125)"></path></g></g></g><mask id="d0bf0a81-e30d-403c-ad7d-ba1474997758"><g><polyline points="0,0 50.5703125,12 50.5703125,64.207666397095 0,76.207666397095" fill="#fff"></polyline><g transform="translate(3,15)" stroke="#000" stroke-width="3" fill="#000"><path d="M23.24 4.49Q22.85 4.49 21.68 4.10L21.68 4.10Q21.09 3.52 21.09 3.32L21.09 3.32L20.90 2.93L20.90 2.93Q20.51 2.93 19.34 2.54L19.34 2.54Q18.75 1.95 18.75 1.76L18.75 1.76L18.55 1.56L18.36 0L18.75-1.56Q18.95-1.95 19.53-2.34L19.53-2.34Q19.73-2.54 20.51-2.54L20.51-2.54L25.39-2.93Q24.80-3.13 24.41-3.91L24.41-3.91Q24.02-5.66 24.22-6.05L24.22-6.05Q23.44-7.03 23.24-7.23L23.24-7.23Q22.46-7.23 22.27-7.42L22.27-7.42Q21.09-8.20 20.90-8.79L20.90-8.79L20.31-9.77L20.12-9.77Q18.75-9.77 18.36-9.96L18.36-9.96L18.16-9.96L16.99-0.59Q16.99 0.20 16.60 0.78L16.60 0.78Q15.82 1.56 13.87 1.56L13.87 1.56L12.30 1.37L11.52 0.98Q10.74 0.78 10.55-0.20L10.55-0.20L9.96-0.20L9.18-0.59Q8.20-0.78 8.20-2.54L8.20-2.54Q8.20-4.10 8.40-5.47L8.40-5.47L8.79-9.77L8.20-9.77L7.23-9.96L5.86-10.55L4.88-11.52L3.52-12.11Q3.13-12.50 2.73-13.28L2.73-13.28Q2.73-14.06 2.93-14.65L2.93-14.65L5.27-21.09Q5.66-22.07 6.45-22.07L6.45-22.07L8.01-21.88L8.59-21.68L9.57-21.29L9.96-21.09L10.74-30.47Q10.74-32.42 13.67-32.42L13.67-32.42Q15.04-32.42 16.21-32.03L16.21-32.03L16.41-31.64Q16.99-31.25 17.19-30.86L17.19-30.86L17.77-30.66Q17.38-31.84 17.38-32.42L17.38-32.42Q17.38-33.59 17.97-34.77L17.97-34.77Q18.55-35.55 19.34-35.55L19.34-35.55L21.09-35.55Q21.09-36.13 21.48-36.52L21.48-36.52Q22.46-37.50 24.41-37.50L24.41-37.50Q25.78-37.50 26.56-37.11L26.56-37.11Q27.34-36.72 27.34-35.94L27.34-35.94L28.91-35.55L29.10-35.35L33.98-35.35L34.57-36.52Q34.96-37.50 35.74-37.50L35.74-37.50L36.33-37.50Q38.87-37.50 40.23-35.74L40.23-35.74L41.60-35.16Q42.38-35.16 42.97-34.57L42.97-34.57L43.75-33.59L43.95-33.59Q44.73-33.59 45.31-33.01L45.31-33.01Q46.29-32.03 46.29-30.86L46.29-30.86Q46.29-29.88 45.70-28.71L45.70-28.71Q45.12-27.93 44.34-27.93L44.34-27.93L40.23-27.93L39.84-27.34L39.65-26.95Q40.23-25.78 40.23-24.80L40.23-24.80L41.41-24.80Q42.58-24.80 42.77-24.02L42.77-24.02L42.97-23.24L43.75-23.24Q44.92-23.24 45.12-22.46L45.12-22.46Q45.51-20.90 45.51-20.51L45.51-20.51Q45.51-19.14 44.73-18.36L44.73-18.36Q44.14-17.77 43.36-17.77L43.36-17.77Q43.95-17.19 43.95-16.02L43.95-16.02L44.14-12.30Q44.14-9.38 43.95-7.62L43.95-7.62Q43.95-6.45 42.97-6.25L42.97-6.25Q41.41-5.86 40.82-5.86L40.82-5.86L41.02-5.08L41.21-4.10L42.77-4.30Q43.75-4.30 44.34-3.52L44.34-3.52L44.53-2.73L45.12-2.73Q46.09-2.73 46.68-1.95L46.68-1.95Q47.46 0 47.27 1.95L47.27 1.95Q46.88 2.93 45.90 2.93L45.90 2.93L23.24 4.49ZM7.42-12.30L7.81-12.30L10.16-19.53L8.59-20.51L6.45-20.90L3.71-13.48Q4.10-13.09 5.27-12.70L5.27-12.70L7.42-12.30ZM11.52-1.17Q13.28-1.17 13.48-1.76L13.48-1.76L15.23-16.99L15.82-24.80L16.21-30.47L15.43-31.05Q15.04-31.25 13.67-31.25L13.67-31.25Q11.91-31.25 11.91-30.47L11.91-30.47L10.16-11.72L9.57-5.27Q9.18-1.95 9.38-1.56L9.38-1.56L11.52-1.17ZM17.77-12.50Q19.73-12.50 20.31-13.09L20.31-13.09L19.53-18.55Q17.77-18.95 17.58-18.75L17.58-18.75L15.63-18.16L16.21-12.70Q16.41-12.50 17.77-12.50L17.77-12.50ZM20.31-19.14Q20.31-19.53 20.51-19.73L20.51-19.73L19.92-19.73L19.34-19.73L19.73-19.73L20.31-19.14ZM19.92 1.76L43.75 0.20L43.75-0.59Q43.75-1.95 43.16-3.13L43.16-3.13L33.40-2.34L33.40-3.71L37.30-3.52Q37.89-4.69 37.50-6.64L37.50-6.64L33.20-6.84L33.20-8.59L35.16-8.59Q36.33-10.35 35.16-11.33L35.16-11.33L33.20-11.33L33.20-12.50L36.72-12.50L36.72-8.98Q37.89-8.59 38.48-8.59L38.48-8.59Q39.26-8.59 40.43-8.98L40.43-8.98Q40.63-10.94 40.63-13.87L40.63-13.87Q40.63-16.60 40.43-17.58L40.43-17.58Q40.43-19.14 38.87-19.53L38.87-19.53Q37.89-19.73 35.94-19.73L35.94-19.73L33.01-19.73L33.01-20.70L41.41-20.51Q41.99-21.09 41.99-22.07L41.99-22.07L41.60-23.63L32.81-23.83L32.81-25.20L36.13-25.39Q36.72-26.37 36.72-26.76L36.72-26.76Q36.72-27.93 35.35-28.52L35.35-28.52L24.61-27.73Q24.41-27.15 24.41-26.37L24.41-26.37Q24.41-25 25.39-24.61L25.39-24.61L29.30-24.80L29.30-23.83L20.12-24.02Q18.75-22.66 19.73-20.90L19.73-20.90L29.30-20.70L29.30-19.53L26.95-19.53Q26.37-17.58 26.76-17.19L26.76-17.19L27.54-16.80L29.49-16.80L29.49-15.43L26.17-15.43Q25.59-14.06 25.98-12.50L25.98-12.50L29.49-12.50L29.49-11.33L25.78-11.33Q25.59-11.33 25.20-14.06L25.20-14.06L25.39-19.14Q25.39-19.73 24.22-19.73L24.22-19.73L23.05-19.73Q21.88-19.73 21.48-19.14L21.48-19.14L21.48-18.36Q21.48-17.19 21.29-16.60L21.29-16.60Q21.09-15.43 21.29-14.06L21.29-14.06Q21.29-12.11 21.48-11.13L21.48-11.13Q21.29-9.96 21.88-9.38L21.88-9.38Q22.07-8.79 23.05-8.40L23.05-8.40L24.02-8.40Q25.98-8.40 26.95-8.59L26.95-8.59L29.49-8.59L29.69-7.03L25.98-7.23Q25.59-6.84 25.39-5.86L25.39-5.86Q25.20-5.47 25.59-4.10L25.59-4.10L29.69-3.91L29.69-2.15L19.92-1.37Q19.53-0.98 19.53 0L19.53 0L19.92 1.76ZM19.53-25Q19.73-25.20 20.51-25.20L20.51-25.20L23.44-25.20Q22.85-25.98 23.24-27.54L23.24-27.54L23.05-27.54Q22.27-27.93 22.07-28.32L22.07-28.32L21.68-28.32Q20.70-28.32 20.12-29.10L20.12-29.10L19.92-29.88L19.14-29.88Q19.53-29.49 19.53-29.30L19.53-29.30Q19.73-28.91 19.73-28.13L19.73-28.13L19.53-25ZM33.01-15.43L33.01-16.80L35.55-16.80Q36.91-16.60 36.91-15.43L36.91-15.43L33.01-15.43ZM23.24-28.71Q23.83-28.52 24.80-28.52L24.80-28.52Q26.37-28.52 27.15-29.10L27.15-29.10L26.95-30.86L33.20-30.86L32.81-30.08Q33.59-28.71 36.33-29.10L36.33-29.10L37.11-30.66L42.19-30.66Q42.77-31.64 42.77-32.42L42.77-32.42Q42.77-33.20 41.99-33.98L41.99-33.98L38.67-33.98L39.26-35.16Q37.89-36.72 35.74-36.33L35.74-36.33L34.77-34.18L26.37-34.18L26.17-35.94Q25.59-36.33 24.41-36.33L24.41-36.33Q23.05-36.33 22.27-35.55L22.27-35.55L22.46-34.38L19.14-34.38Q18.16-32.42 18.95-31.05L18.95-31.05L22.85-31.05L23.24-28.71Z" transform="translate(-2.734375, 40.250635147095)"></path></g><g transform="translate(3,15)" fill="#fff"><path d="M23.24 4.49Q22.85 4.49 21.68 4.10L21.68 4.10Q21.09 3.52 21.09 3.32L21.09 3.32L20.90 2.93L20.90 2.93Q20.51 2.93 19.34 2.54L19.34 2.54Q18.75 1.95 18.75 1.76L18.75 1.76L18.55 1.56L18.36 0L18.75-1.56Q18.95-1.95 19.53-2.34L19.53-2.34Q19.73-2.54 20.51-2.54L20.51-2.54L25.39-2.93Q24.80-3.13 24.41-3.91L24.41-3.91Q24.02-5.66 24.22-6.05L24.22-6.05Q23.44-7.03 23.24-7.23L23.24-7.23Q22.46-7.23 22.27-7.42L22.27-7.42Q21.09-8.20 20.90-8.79L20.90-8.79L20.31-9.77L20.12-9.77Q18.75-9.77 18.36-9.96L18.36-9.96L18.16-9.96L16.99-0.59Q16.99 0.20 16.60 0.78L16.60 0.78Q15.82 1.56 13.87 1.56L13.87 1.56L12.30 1.37L11.52 0.98Q10.74 0.78 10.55-0.20L10.55-0.20L9.96-0.20L9.18-0.59Q8.20-0.78 8.20-2.54L8.20-2.54Q8.20-4.10 8.40-5.47L8.40-5.47L8.79-9.77L8.20-9.77L7.23-9.96L5.86-10.55L4.88-11.52L3.52-12.11Q3.13-12.50 2.73-13.28L2.73-13.28Q2.73-14.06 2.93-14.65L2.93-14.65L5.27-21.09Q5.66-22.07 6.45-22.07L6.45-22.07L8.01-21.88L8.59-21.68L9.57-21.29L9.96-21.09L10.74-30.47Q10.74-32.42 13.67-32.42L13.67-32.42Q15.04-32.42 16.21-32.03L16.21-32.03L16.41-31.64Q16.99-31.25 17.19-30.86L17.19-30.86L17.77-30.66Q17.38-31.84 17.38-32.42L17.38-32.42Q17.38-33.59 17.97-34.77L17.97-34.77Q18.55-35.55 19.34-35.55L19.34-35.55L21.09-35.55Q21.09-36.13 21.48-36.52L21.48-36.52Q22.46-37.50 24.41-37.50L24.41-37.50Q25.78-37.50 26.56-37.11L26.56-37.11Q27.34-36.72 27.34-35.94L27.34-35.94L28.91-35.55L29.10-35.35L33.98-35.35L34.57-36.52Q34.96-37.50 35.74-37.50L35.74-37.50L36.33-37.50Q38.87-37.50 40.23-35.74L40.23-35.74L41.60-35.16Q42.38-35.16 42.97-34.57L42.97-34.57L43.75-33.59L43.95-33.59Q44.73-33.59 45.31-33.01L45.31-33.01Q46.29-32.03 46.29-30.86L46.29-30.86Q46.29-29.88 45.70-28.71L45.70-28.71Q45.12-27.93 44.34-27.93L44.34-27.93L40.23-27.93L39.84-27.34L39.65-26.95Q40.23-25.78 40.23-24.80L40.23-24.80L41.41-24.80Q42.58-24.80 42.77-24.02L42.77-24.02L42.97-23.24L43.75-23.24Q44.92-23.24 45.12-22.46L45.12-22.46Q45.51-20.90 45.51-20.51L45.51-20.51Q45.51-19.14 44.73-18.36L44.73-18.36Q44.14-17.77 43.36-17.77L43.36-17.77Q43.95-17.19 43.95-16.02L43.95-16.02L44.14-12.30Q44.14-9.38 43.95-7.62L43.95-7.62Q43.95-6.45 42.97-6.25L42.97-6.25Q41.41-5.86 40.82-5.86L40.82-5.86L41.02-5.08L41.21-4.10L42.77-4.30Q43.75-4.30 44.34-3.52L44.34-3.52L44.53-2.73L45.12-2.73Q46.09-2.73 46.68-1.95L46.68-1.95Q47.46 0 47.27 1.95L47.27 1.95Q46.88 2.93 45.90 2.93L45.90 2.93L23.24 4.49ZM7.42-12.30L7.81-12.30L10.16-19.53L8.59-20.51L6.45-20.90L3.71-13.48Q4.10-13.09 5.27-12.70L5.27-12.70L7.42-12.30ZM11.52-1.17Q13.28-1.17 13.48-1.76L13.48-1.76L15.23-16.99L15.82-24.80L16.21-30.47L15.43-31.05Q15.04-31.25 13.67-31.25L13.67-31.25Q11.91-31.25 11.91-30.47L11.91-30.47L10.16-11.72L9.57-5.27Q9.18-1.95 9.38-1.56L9.38-1.56L11.52-1.17ZM17.77-12.50Q19.73-12.50 20.31-13.09L20.31-13.09L19.53-18.55Q17.77-18.95 17.58-18.75L17.58-18.75L15.63-18.16L16.21-12.70Q16.41-12.50 17.77-12.50L17.77-12.50ZM20.31-19.14Q20.31-19.53 20.51-19.73L20.51-19.73L19.92-19.73L19.34-19.73L19.73-19.73L20.31-19.14ZM19.92 1.76L43.75 0.20L43.75-0.59Q43.75-1.95 43.16-3.13L43.16-3.13L33.40-2.34L33.40-3.71L37.30-3.52Q37.89-4.69 37.50-6.64L37.50-6.64L33.20-6.84L33.20-8.59L35.16-8.59Q36.33-10.35 35.16-11.33L35.16-11.33L33.20-11.33L33.20-12.50L36.72-12.50L36.72-8.98Q37.89-8.59 38.48-8.59L38.48-8.59Q39.26-8.59 40.43-8.98L40.43-8.98Q40.63-10.94 40.63-13.87L40.63-13.87Q40.63-16.60 40.43-17.58L40.43-17.58Q40.43-19.14 38.87-19.53L38.87-19.53Q37.89-19.73 35.94-19.73L35.94-19.73L33.01-19.73L33.01-20.70L41.41-20.51Q41.99-21.09 41.99-22.07L41.99-22.07L41.60-23.63L32.81-23.83L32.81-25.20L36.13-25.39Q36.72-26.37 36.72-26.76L36.72-26.76Q36.72-27.93 35.35-28.52L35.35-28.52L24.61-27.73Q24.41-27.15 24.41-26.37L24.41-26.37Q24.41-25 25.39-24.61L25.39-24.61L29.30-24.80L29.30-23.83L20.12-24.02Q18.75-22.66 19.73-20.90L19.73-20.90L29.30-20.70L29.30-19.53L26.95-19.53Q26.37-17.58 26.76-17.19L26.76-17.19L27.54-16.80L29.49-16.80L29.49-15.43L26.17-15.43Q25.59-14.06 25.98-12.50L25.98-12.50L29.49-12.50L29.49-11.33L25.78-11.33Q25.59-11.33 25.20-14.06L25.20-14.06L25.39-19.14Q25.39-19.73 24.22-19.73L24.22-19.73L23.05-19.73Q21.88-19.73 21.48-19.14L21.48-19.14L21.48-18.36Q21.48-17.19 21.29-16.60L21.29-16.60Q21.09-15.43 21.29-14.06L21.29-14.06Q21.29-12.11 21.48-11.13L21.48-11.13Q21.29-9.96 21.88-9.38L21.88-9.38Q22.07-8.79 23.05-8.40L23.05-8.40L24.02-8.40Q25.98-8.40 26.95-8.59L26.95-8.59L29.49-8.59L29.69-7.03L25.98-7.23Q25.59-6.84 25.39-5.86L25.39-5.86Q25.20-5.47 25.59-4.10L25.59-4.10L29.69-3.91L29.69-2.15L19.92-1.37Q19.53-0.98 19.53 0L19.53 0L19.92 1.76ZM19.53-25Q19.73-25.20 20.51-25.20L20.51-25.20L23.44-25.20Q22.85-25.98 23.24-27.54L23.24-27.54L23.05-27.54Q22.27-27.93 22.07-28.32L22.07-28.32L21.68-28.32Q20.70-28.32 20.12-29.10L20.12-29.10L19.92-29.88L19.14-29.88Q19.53-29.49 19.53-29.30L19.53-29.30Q19.73-28.91 19.73-28.13L19.73-28.13L19.53-25ZM33.01-15.43L33.01-16.80L35.55-16.80Q36.91-16.60 36.91-15.43L36.91-15.43L33.01-15.43ZM23.24-28.71Q23.83-28.52 24.80-28.52L24.80-28.52Q26.37-28.52 27.15-29.10L27.15-29.10L26.95-30.86L33.20-30.86L32.81-30.08Q33.59-28.71 36.33-29.10L36.33-29.10L37.11-30.66L42.19-30.66Q42.77-31.64 42.77-32.42L42.77-32.42Q42.77-33.20 41.99-33.98L41.99-33.98L38.67-33.98L39.26-35.16Q37.89-36.72 35.74-36.33L35.74-36.33L34.77-34.18L26.37-34.18L26.17-35.94Q25.59-36.33 24.41-36.33L24.41-36.33Q23.05-36.33 22.27-35.55L22.27-35.55L22.46-34.38L19.14-34.38Q18.16-32.42 18.95-31.05L18.95-31.05L22.85-31.05L23.24-28.71Z" transform="translate(-2.734375, 40.250635147095)"></path></g></g></mask></svg>
